<?xml version="1.0" standalone="no"?>
<!DOCTYPE svg PUBLIC "-//W3C//DTD SVG 20010904//EN"
 "http://www.w3.org/TR/2001/REC-SVG-20010904/DTD/svg10.dtd">
<svg version="1.0" xmlns="http://www.w3.org/2000/svg"
 width="401.000000pt" height="401.000000pt" viewBox="0 0 401.000000 401.000000"
 preserveAspectRatio="xMidYMid meet">
<metadata>
Created by potrace 1.14, written by Peter Selinger 2001-2017
</metadata>
<g transform="translate(0.000000,401.000000) scale(0.100000,-0.100000)"
fill="#000000" stroke="none">
<path d="M2235 3500 c-127 -60 -332 -153 -380 -172 -27 -11 -102 -44 -165 -73
-63 -29 -205 -92 -315 -139 -110 -48 -214 -93 -232 -101 -25 -11 -34 -24 -43
-57 -58 -221 -186 -517 -369 -853 -243 -444 -365 -765 -495 -1300 -70 -285
-84 -349 -82 -353 4 -3 61 21 183 79 58 27 107 49 109 49 2 0 34 14 71 31 38
18 252 115 478 216 231 103 422 195 437 210 36 34 65 105 73 178 8 77 55 256
107 412 l41 122 49 -44 c99 -89 248 -141 378 -132 79 5 180 32 180 47 0 5 -12
2 -27 -6 -39 -19 -59 -19 -39 1 9 9 23 15 33 13 10 -2 19 4 21 14 2 13 -2 15
-20 11 -29 -7 -22 0 21 22 18 9 30 12 27 6 -4 -6 -2 -11 3 -11 6 0 11 7 11 15
0 8 9 15 21 15 16 0 19 4 14 21 -7 21 -6 21 18 -2 27 -27 24 -35 -25 -63 -28
-17 -31 -17 -19 -3 7 9 10 17 7 17 -15 0 -46 -21 -46 -31 0 -6 4 -7 10 -4 5 3
7 0 4 -8 -15 -39 42 -106 155 -182 130 -87 159 -125 192 -252 19 -78 41 -123
60 -123 5 0 1 12 -10 28 -11 15 -30 65 -41 112 -25 99 -51 144 -111 188 -24
18 -78 57 -119 87 -61 45 -120 111 -120 135 0 3 15 11 33 19 43 19 169 146
195 198 l22 42 -34 -6 c-50 -8 -139 15 -190 49 -55 36 -55 48 0 19 20 -11 61
-26 89 -32 70 -15 174 6 286 59 46 21 181 83 299 138 239 110 277 137 324 237
14 31 34 88 42 127 16 70 16 70 75 105 165 97 318 242 372 355 83 174 61 350
-53 408 -77 38 -127 28 -349 -72 -53 -24 -220 -100 -371 -168 -151 -69 -363
-165 -470 -213 -107 -49 -209 -101 -226 -117 -39 -36 -74 -106 -74 -146 0 -22
-7 -35 -21 -43 -12 -6 -19 -7 -15 -1 7 11 -15 18 -91 28 -29 3 -53 9 -53 12 0
3 24 62 54 131 95 222 162 470 181 666 4 39 8 80 10 93 5 28 -6 27 -80 -8z
m20 -182 c-25 -169 -87 -360 -206 -629 l-34 -77 -69 -12 c-71 -13 -191 -67
-191 -87 0 -6 -4 -15 -9 -20 -5 -5 -6 -3 -2 5 17 30 -15 7 -66 -45 -72 -76
-104 -133 -128 -228 -34 -133 -20 -262 40 -373 l30 -55 -55 -161 c-29 -88 -68
-228 -84 -309 -17 -81 -38 -161 -46 -176 -32 -62 -98 -104 -330 -209 -125 -56
-231 -101 -235 -100 -8 3 57 287 104 458 75 270 109 349 354 827 176 343 339
744 404 997 l33 124 250 115 c291 135 267 139 240 -45z m1481 -33 c32 -21 63
-88 64 -137 0 -118 -70 -271 -172 -371 -10 -10 -15 -23 -12 -29 4 -7 2 -8 -5
-4 -7 4 -27 -6 -49 -25 -46 -40 -168 -121 -211 -138 -20 -9 -33 -23 -37 -40
-34 -155 -65 -224 -125 -275 -38 -32 -207 -112 -216 -102 -3 3 2 36 11 73 8
37 41 230 72 427 30 198 61 371 69 386 7 14 21 33 31 42 20 17 333 167 419
199 58 22 122 20 161 -6z m-2080 -107 c-3 -13 -10 -50 -17 -83 -52 -274 -148
-519 -412 -1052 -230 -464 -315 -676 -371 -929 -15 -65 -34 -148 -42 -183 -16
-72 -47 -120 -103 -157 -40 -26 -465 -224 -481 -224 -12 0 -14 -12 44 231 132
548 257 878 498 1307 159 285 243 466 336 733 l57 161 235 108 c129 59 241
108 248 109 8 1 11 -7 8 -21z m1385 -165 c-6 -21 -32 -177 -57 -348 -54 -372
-77 -491 -102 -525 -10 -14 -58 -46 -108 -72 -215 -114 -319 -139 -410 -99
-27 12 -60 32 -73 44 -32 30 -71 114 -71 156 0 42 77 467 91 502 19 48 66 81
195 135 70 30 128 54 129 54 1 0 -6 -24 -16 -53 -23 -68 -119 -576 -119 -630
0 -24 7 -48 17 -59 19 -21 66 -24 82 -4 13 16 76 338 115 588 15 95 33 173 44
192 14 24 47 46 152 98 74 36 136 65 138 63 2 -2 -1 -20 -7 -42z m-999 -528
c48 -23 63 -61 63 -155 0 -64 -4 -83 -28 -124 -21 -39 -25 -52 -15 -59 9 -6 7
-7 -6 -3 -12 4 -30 -4 -52 -24 -92 -81 -295 -75 -339 10 -26 49 -30 119 -11
185 21 71 97 153 166 178 57 21 170 17 222 -8z m72 -291 c5 -14 4 -15 -9 -4
-17 14 -19 20 -6 20 5 0 12 -7 15 -16z m-33 -27 c-10 -9 -11 -8 -5 6 3 10 9
15 12 12 3 -3 0 -11 -7 -18z m-36 -47 c-3 -5 -11 -10 -16 -10 -6 0 -7 5 -4 10
3 6 11 10 16 10 6 0 7 -4 4 -10z m28 -13 c3 -7 -3 -13 -14 -13 -13 0 -15 3 -7
13 6 7 12 13 13 13 2 0 5 -6 8 -13z m-88 -37 c-3 -5 -16 -10 -28 -9 -20 1 -20
2 3 9 14 4 26 8 28 9 2 1 0 -3 -3 -9z m-64 -23 c-10 -9 -11 -8 -5 6 3 10 9 15
12 12 3 -3 0 -11 -7 -18z m76 -3 c-3 -3 -12 -4 -19 -1 -8 3 -5 6 6 6 11 1 17
-2 13 -5z m-418 -129 c0 -5 -4 -3 -9 5 -5 8 -9 22 -9 30 0 16 17 -16 18 -35z
m71 -137 c0 -5 -4 -8 -10 -8 -5 0 -10 8 -10 18 0 9 -12 35 -25 57 -14 22 -25
45 -25 50 0 11 69 -105 70 -117z m824 60 l-5 -23 12 23 c7 12 16 22 20 22 4 0
0 -13 -9 -29 -11 -20 -19 -26 -24 -18 -11 17 -10 47 1 47 5 0 7 -10 5 -22z
m-40 -77 c-18 -16 -22 -18 -10 -5 13 16 16 32 12 60 l-6 39 16 -34 c15 -33 15
-35 -12 -60z m-10 34 c-6 -16 -24 -21 -24 -7 0 11 11 22 21 22 5 0 6 -7 3 -15z
m-722 -54 c10 -9 31 -28 45 -43 22 -22 30 -25 47 -16 12 6 18 7 14 3 -13 -14
96 -80 113 -69 5 3 9 0 9 -6 0 -15 -51 -4 -61 12 -4 6 -12 7 -18 4 -6 -4 -11
-3 -11 2 0 5 -6 9 -13 9 -20 0 -97 55 -137 99 -34 36 -28 38 12 5z m698 19
c-19 -13 -30 -13 -30 0 0 6 10 10 23 10 18 0 19 -2 7 -10z m-40 -21 c0 -6 -4
-7 -10 -4 -5 3 -10 11 -10 16 0 6 5 7 10 4 6 -3 10 -11 10 -16z m39 -20 c-22
-14 -33 -10 -19 6 7 8 17 12 22 9 6 -4 5 -10 -3 -15z m-289 -99 c-8 -5 -22
-10 -30 -10 -13 0 -13 1 0 10 8 5 22 10 30 10 13 0 13 -1 0 -10z m-130 -15 c0
-9 -9 -15 -22 -14 -18 1 -19 2 -5 6 9 2 15 9 12 14 -4 5 -1 9 4 9 6 0 11 -7
11 -15z m60 5 c11 -7 6 -10 -20 -10 -26 0 -31 3 -20 10 8 5 17 10 20 10 3 0
12 -5 20 -10z m130 -4 c0 -8 -9 -12 -22 -11 -41 4 -43 7 -13 15 17 4 31 8 33
9 1 0 2 -5 2 -13z m-51 -22 c2 -2 -27 -3 -65 -3 -60 2 -64 3 -29 9 36 6 83 3
94 -6z"/>
<path d="M3429 3158 c0 -2 -20 -103 -43 -224 -30 -158 -38 -220 -29 -217 29
11 103 127 123 191 26 82 36 187 21 225 -8 21 -17 27 -41 27 -16 0 -30 -1 -31
-2z"/>
<path d="M1790 1666 c0 -3 9 -10 20 -16 11 -6 20 -8 20 -6 0 3 -9 10 -20 16
-11 6 -20 8 -20 6z"/>
<path d="M2330 1690 c0 -5 -8 -7 -17 -3 -14 4 -15 3 -7 -6 6 -6 18 -9 27 -5
18 7 23 24 7 24 -5 0 -10 -4 -10 -10z"/>
</g>
</svg>
